Hanif_Deep_7_5_grf.mot
version=1
nRows=21
nColumns=19
inDegrees=yes
endheader
time	right_ground_force_vx	right_ground_force_vy	right_ground_force_vz	right_ground_force_px	right_ground_force_py	right_ground_force_pz	right_ground_torque_x	right_ground_torque_y	right_ground_torque_z	left_ground_force_vx	left_ground_force_vy	left_ground_force_vz	left_ground_force_px	left_ground_force_py	left_ground_force_pz	left_ground_torque_x	left_ground_torque_y	left_ground_torque_z
3.200000	-0.343950	289.830000	62.457700	0.206900	0.000000	-1.435360	-20.477100	2.380410	2.611010	-6.212300	301.866000	-61.476400	0.215185	0.000000	-1.007480	31.615900	-2.197840	5.353760
3.205000	-0.022410	291.774000	62.105000	0.207761	0.000000	-1.435250	-20.644200	2.371770	2.872240	-6.331680	302.874000	-61.633100	0.215483	0.000000	-1.008190	31.936300	-2.113230	5.449270
3.210000	-0.356071	290.627000	62.388900	0.208062	0.000000	-1.435010	-20.633900	2.302080	2.950510	-6.914750	303.238000	-61.370200	0.215295	0.000000	-1.007380	31.739200	-2.221160	5.423450
3.215000	-0.493065	291.603000	62.084000	0.208573	0.000000	-1.434090	-20.973800	2.334940	3.117880	-7.203670	302.231000	-61.583600	0.215320	0.000000	-1.007650	31.720200	-2.151780	5.414330
3.220000	-0.296479	291.381000	62.753800	0.208747	0.000000	-1.434670	-20.788100	2.228720	3.151610	-7.312280	302.471000	-61.141100	0.215313	0.000000	-1.007680	31.757700	-2.187110	5.417810
3.225000	0.036196	290.130000	63.120500	0.209065	0.000000	-1.434370	-20.782400	2.202800	3.233300	-7.113030	302.018000	-61.345300	0.214787	0.000000	-1.008200	31.860500	-2.145490	5.237880
3.230000	0.315347	290.818000	62.717300	0.208669	0.000000	-1.434520	-20.783500	2.210050	3.110020	-7.132030	302.956000	-61.095700	0.215787	0.000000	-1.008100	31.931000	-2.153170	5.562700
3.235000	0.282773	289.830000	62.526200	0.208984	0.000000	-1.434560	-20.701800	2.201100	3.195620	-7.211770	302.465000	-61.084500	0.215945	0.000000	-1.008370	31.966300	-2.231120	5.623600
3.240000	0.673798	288.776000	63.108100	0.208819	0.000000	-1.433700	-20.871200	2.312080	3.162870	-6.989840	301.354000	-60.635600	0.215184	0.000000	-1.008920	32.009000	-2.164670	5.345660
3.245000	0.740841	289.157000	63.231600	0.209050	0.000000	-1.434000	-20.811200	2.226530	3.217230	-7.051740	301.401000	-60.663000	0.215516	0.000000	-1.008840	31.991500	-2.263240	5.471840
3.250000	1.302540	289.459000	63.103000	0.209184	0.000000	-1.434110	-20.797600	2.216490	3.247500	-7.196850	302.876000	-60.486100	0.215636	0.000000	-1.008210	31.961100	-2.316020	5.538280
3.255000	1.776100	289.444000	63.592400	0.209087	0.000000	-1.433280	-21.031600	2.182890	3.208420	-6.694770	300.673000	-60.288100	0.215345	0.000000	-1.009220	32.023700	-2.302390	5.403520
3.260000	1.773660	290.905000	63.240200	0.208815	0.000000	-1.434100	-20.900400	2.254820	3.147860	-6.785160	300.192000	-59.917600	0.215829	0.000000	-1.008540	31.769300	-2.248270	5.532840
3.265000	2.069130	289.707000	63.236600	0.209260	0.000000	-1.433420	-21.007800	2.182800	3.254110	-7.099380	301.350000	-60.297200	0.215499	0.000000	-1.008950	32.021000	-2.289160	5.466120
3.270000	1.863220	290.529000	63.344100	0.209136	0.000000	-1.434110	-20.868100	2.204220	3.231980	-6.561330	301.490000	-60.094900	0.215608	0.000000	-1.008150	31.789100	-2.319600	5.492480
3.275000	1.446830	292.775000	63.138700	0.208907	0.000000	-1.434100	-21.037300	2.163210	3.173040	-7.067330	301.110000	-60.227100	0.215249	0.000000	-1.008520	31.867000	-2.378270	5.400320
3.280000	1.148630	291.439000	63.018300	0.209247	0.000000	-1.434000	-20.973300	2.187340	3.276110	-6.544360	300.815000	-60.342500	0.215460	0.000000	-1.008510	31.825500	-2.307310	5.439070
3.285000	0.898028	291.787000	63.082600	0.209571	0.000000	-1.433860	-21.040400	2.141310	3.372080	-6.605590	300.229000	-60.514700	0.214970	0.000000	-1.009210	31.976300	-2.373930	5.297070
3.290000	1.005450	291.959000	62.300000	0.209574	0.000000	-1.433880	-21.048200	2.149440	3.365790	-6.313460	299.104000	-60.018500	0.214474	0.000000	-1.008650	31.685600	-2.471740	5.133360
3.295000	0.642525	290.891000	62.421700	0.209686	0.000000	-1.433240	-21.160700	2.139950	3.396400	-6.028910	300.384000	-60.270100	0.214477	0.000000	-1.008730	31.840600	-2.459840	5.145130
3.300000	1.052750	292.596000	63.065500	0.209953	0.000000	-1.433910	-21.082600	2.084500	3.480450	-6.125980	300.100000	-60.199800	0.213839	0.000000	-1.008300	31.682500	-2.522020	4.955610
